<svg width="13" height="13" viewBox="0 0 13 13" fill="none" xmlns="http://www.w3.org/2000/svg">
<path opacity="0.5" d="M6.35006 7.4L1.27506 12.475C1.14173 12.6083 0.971061 12.679 0.763061 12.687C0.554394 12.6957 0.375061 12.625 0.225061 12.475C0.0750609 12.325 6.10352e-05 12.15 6.10352e-05 11.95C6.10352e-05 11.75 0.0750609 11.575 0.225061 11.425L5.30006 6.35L0.225061 1.275C0.0917276 1.14167 0.021061 0.970667 0.013061 0.762C0.00439438 0.554 0.0750609 0.375 0.225061 0.225C0.375061 0.0749999 0.550061 0 0.750061 0C0.950061 0 1.12506 0.0749999 1.27506 0.225L6.35006 5.3L11.4251 0.225C11.5584 0.0916666 11.7294 0.0206668 11.9381 0.0120001C12.1461 0.00400008 12.3251 0.0749999 12.4751 0.225C12.6251 0.375 12.7001 0.55 12.7001 0.75C12.7001 0.95 12.6251 1.125 12.4751 1.275L7.40006 6.35L12.4751 11.425C12.6084 11.5583 12.6791 11.729 12.6871 11.937C12.6957 12.1457 12.6251 12.325 12.4751 12.475C12.3251 12.625 12.1501 12.7 11.9501 12.7C11.7501 12.7 11.5751 12.625 11.4251 12.475L6.35006 7.4Z" fill="#16103E"/>
</svg>
