<svg width="25" height="24" viewBox="0 0 25 24" fill="none" xmlns="http://www.w3.org/2000/svg">
<path d="M12.4008 8.09462C10.2504 8.09462 8.4955 9.84951 8.4955 11.9999C8.4955 14.1503 10.2504 15.9052 12.4008 15.9052C14.5512 15.9052 16.306 14.1503 16.306 11.9999C16.306 9.84951 14.5512 8.09462 12.4008 8.09462ZM24.1137 11.9999C24.1137 10.3827 24.1283 8.78017 24.0375 7.16591C23.9467 5.29091 23.5189 3.62685 22.1478 2.25575C20.7738 0.881731 19.1127 0.456926 17.2377 0.366106C15.6205 0.275285 14.018 0.289934 12.4037 0.289934C10.7865 0.289934 9.18398 0.275285 7.56972 0.366106C5.69472 0.456926 4.03066 0.88466 2.65956 2.25575C1.28554 3.62978 0.860735 5.29091 0.769914 7.16591C0.679094 8.7831 0.693743 10.3856 0.693743 11.9999C0.693743 13.6142 0.679094 15.2196 0.769914 16.8339C0.860735 18.7089 1.28847 20.3729 2.65956 21.744C4.03359 23.1181 5.69472 23.5429 7.56972 23.6337C9.18691 23.7245 10.7894 23.7099 12.4037 23.7099C14.0209 23.7099 15.6234 23.7245 17.2377 23.6337C19.1127 23.5429 20.7767 23.1151 22.1478 21.744C23.5219 20.37 23.9467 18.7089 24.0375 16.8339C24.1312 15.2196 24.1137 13.6171 24.1137 11.9999ZM12.4008 18.0087C9.07558 18.0087 6.39198 15.3251 6.39198 11.9999C6.39198 8.6747 9.07558 5.99111 12.4008 5.99111C15.726 5.99111 18.4096 8.6747 18.4096 11.9999C18.4096 15.3251 15.726 18.0087 12.4008 18.0087ZM18.6557 7.14833C17.8793 7.14833 17.2523 6.52138 17.2523 5.74501C17.2523 4.96865 17.8793 4.34169 18.6557 4.34169C19.432 4.34169 20.059 4.96865 20.059 5.74501C20.0592 5.92936 20.0231 6.11195 19.9526 6.28231C19.8822 6.45268 19.7788 6.60747 19.6485 6.73783C19.5181 6.86818 19.3633 6.97154 19.193 7.04198C19.0226 7.11243 18.84 7.14856 18.6557 7.14833Z" fill="#16103E"/>
</svg>
