<svg width="27" height="22" viewBox="0 0 27 22" fill="none" xmlns="http://www.w3.org/2000/svg">
<path d="M26.2757 2.5C25.3132 2.9375 24.2757 3.225 23.2007 3.3625C24.3007 2.7 25.1507 1.65 25.5507 0.3875C24.5132 1.0125 23.3632 1.45 22.1507 1.7C21.1632 0.625 19.7757 0 18.2007 0C15.2632 0 12.8632 2.4 12.8632 5.3625C12.8632 5.7875 12.9132 6.2 13.0007 6.5875C8.55073 6.3625 4.58823 4.225 1.95073 0.9875C1.48823 1.775 1.22573 2.7 1.22573 3.675C1.22573 5.5375 2.16323 7.1875 3.61323 8.125C2.72573 8.125 1.90073 7.875 1.17573 7.5V7.5375C1.17573 10.1375 3.02573 12.3125 5.47573 12.8C4.68914 13.0153 3.86335 13.0452 3.06323 12.8875C3.40274 13.9531 4.06765 14.8855 4.9645 15.5537C5.86135 16.2218 6.94504 16.5921 8.06323 16.6125C6.16777 18.113 3.81823 18.9241 1.40073 18.9125C0.975732 18.9125 0.550732 18.8875 0.125732 18.8375C2.50073 20.3625 5.32573 21.25 8.35073 21.25C18.2007 21.25 23.6132 13.075 23.6132 5.9875C23.6132 5.75 23.6132 5.525 23.6007 5.2875C24.6507 4.5375 25.5507 3.5875 26.2757 2.5Z" fill="#16103E"/>
</svg>
