<svg width="27" height="20" viewBox="0 0 27 20" fill="none" xmlns="http://www.w3.org/2000/svg">
<path d="M26.3772 3.6748C26.2278 3.11828 25.9348 2.61076 25.5276 2.20303C25.1204 1.79531 24.6132 1.5017 24.0569 1.35156C22.009 0.800781 13.8 0.800781 13.8 0.800781C13.8 0.800781 5.59106 0.800781 3.54321 1.34863C2.98663 1.49828 2.47922 1.79173 2.07194 2.19953C1.66466 2.60733 1.37184 3.11511 1.2229 3.67188C0.675049 5.72266 0.675049 10 0.675049 10C0.675049 10 0.675049 14.2773 1.2229 16.3252C1.52466 17.4561 2.41528 18.3467 3.54321 18.6484C5.59106 19.1992 13.8 19.1992 13.8 19.1992C13.8 19.1992 22.009 19.1992 24.0569 18.6484C25.1877 18.3467 26.0754 17.4561 26.3772 16.3252C26.925 14.2773 26.925 10 26.925 10C26.925 10 26.925 5.72266 26.3772 3.6748ZM11.1926 13.9258V6.07422L17.9895 9.9707L11.1926 13.9258Z" fill="#16103E"/>
</svg>
